<svg width="46" height="46" viewBox="0 0 46 46" fill="none" xmlns="http://www.w3.org/2000/svg">
<path d="M45.5316 22.9417C45.4911 10.5397 35.4224 0.500244 23.0181 0.500244C10.6094 0.500244 0.542872 10.5397 0.502372 22.9417L0.500122 22.8832V23.1352L0.502372 23.0835C0.540622 35.4877 10.6071 45.5317 23.0181 45.5317C35.4246 45.5317 45.4911 35.4922 45.5316 23.0902L45.5339 23.1487V23.0272V23.016V22.8832L45.5316 22.9417ZM16.8824 33.2535C11.2371 33.2535 6.64937 28.6657 6.64937 23.0182C6.64937 17.3707 11.2371 12.783 16.8824 12.783C19.6499 12.783 21.9629 13.7977 23.7359 15.456L20.8221 18.2797C20.0909 17.5845 18.7994 16.7655 16.8824 16.7655C13.4961 16.7655 10.7331 19.5802 10.7331 23.0317C10.7331 26.481 13.4984 29.2957 16.8824 29.2957C20.8019 29.2957 22.2464 26.5822 22.5119 24.9757H16.8779V21.1552H26.4516C26.6001 21.7987 26.7104 22.4017 26.7104 23.2522C26.7104 29.0955 22.7909 33.2535 16.8824 33.2535ZM40.4129 24.0397H36.3201V28.1325H33.2511V24.0397H29.1561V20.9707H33.2511V16.8757H36.3201V20.9707H40.4129V24.0397Z"/>
</svg>
