<svg width="19" height="20" viewBox="0 0 19 20" fill="none" xmlns="http://www.w3.org/2000/svg">
<path d="M9.08337 1.58594C4.94337 1.58594 1.58337 4.94594 1.58337 9.08594C1.58337 13.2259 4.94337 16.5859 9.08337 16.5859H12.8334V15.0859H9.08337C5.82837 15.0859 3.08337 12.3409 3.08337 9.08594C3.08337 5.83094 5.82837 3.08594 9.08337 3.08594C12.3384 3.08594 15.0834 5.83094 15.0834 9.08594V10.1584C15.0834 10.7509 14.5509 11.3359 13.9584 11.3359C13.3659 11.3359 12.8334 10.7509 12.8334 10.1584V9.08594C12.8334 7.01594 11.1534 5.33594 9.08337 5.33594C7.01337 5.33594 5.33337 7.01594 5.33337 9.08594C5.33337 11.1559 7.01337 12.8359 9.08337 12.8359C10.1184 12.8359 11.0634 12.4159 11.7384 11.7334C12.2259 12.4009 13.0659 12.8359 13.9584 12.8359C15.4359 12.8359 16.5834 11.6359 16.5834 10.1584V9.08594C16.5834 4.94594 13.2234 1.58594 9.08337 1.58594ZM9.08337 11.3359C7.83837 11.3359 6.83337 10.3309 6.83337 9.08594C6.83337 7.84094 7.83837 6.83594 9.08337 6.83594C10.3284 6.83594 11.3334 7.84094 11.3334 9.08594C11.3334 10.3309 10.3284 11.3359 9.08337 11.3359Z" />
</svg>
