<svg width="20" height="21" viewBox="0 0 20 21" fill="none" xmlns="http://www.w3.org/2000/svg">
<path d="M15.0723 11.0962C15.1524 10.6567 15.1953 10.2075 15.1953 9.7583C15.1953 8.76221 15 7.79541 14.6153 6.88721C14.2442 6.0083 13.711 5.21924 13.0332 4.5415C12.3612 3.86772 11.5645 3.33107 10.6875 2.96143C9.77737 2.57666 8.81252 2.38135 7.81643 2.38135C7.34768 2.38135 6.87697 2.42627 6.41994 2.51416C5.78755 2.17905 5.0829 2.00339 4.36721 2.00244C3.20119 2.00244 2.10353 2.45752 1.27931 3.28174C0.872597 3.68636 0.550125 4.1676 0.330541 4.69762C0.110956 5.22764 -0.00138471 5.79593 1.28815e-05 6.36963C1.28815e-05 7.11182 0.191419 7.84229 0.548842 8.48682C0.476576 8.90479 0.437513 9.33252 0.437513 9.7583C0.437513 10.7544 0.632826 11.7212 1.01759 12.6294C1.38869 13.5083 1.91994 14.2974 2.59767 14.9751C3.27541 15.6528 4.06447 16.1841 4.94338 16.5552C5.85353 16.9399 6.81838 17.1353 7.81447 17.1353C8.24807 17.1353 8.68166 17.0962 9.10744 17.02C9.76174 17.3892 10.5 17.5864 11.2559 17.5864C12.4219 17.5864 13.5196 17.1333 14.3438 16.3071C15.17 15.4829 15.6231 14.3853 15.6231 13.2192C15.625 12.4771 15.4336 11.7446 15.0723 11.0962ZM7.84572 14.2778C5.22463 14.2778 4.05275 12.9888 4.05275 12.0239C4.05275 11.5278 4.41799 11.1821 4.92189 11.1821C6.04299 11.1821 5.75393 12.7935 7.84572 12.7935C8.91799 12.7935 9.50979 12.2114 9.50979 11.6157C9.50979 11.2583 9.33401 10.8599 8.62698 10.686L6.29494 10.104C4.41799 9.6333 4.07619 8.61768 4.07619 7.66455C4.07619 5.68408 5.94143 4.93994 7.69338 4.93994C9.30666 4.93994 11.209 5.83252 11.209 7.02002C11.209 7.52979 10.7676 7.82471 10.2637 7.82471C9.30666 7.82471 9.48244 6.50049 7.55471 6.50049C6.59768 6.50049 6.06838 6.93408 6.06838 7.55322C6.06838 8.17236 6.82424 8.36963 7.48049 8.52002L9.20705 8.90283C11.0977 9.32471 11.5762 10.4282 11.5762 11.4673C11.5762 13.0747 10.3399 14.2778 7.84572 14.2778Z" fill="white"/>
</svg>
