<svg width="25" height="26" viewBox="0 0 25 26" fill="none" xmlns="http://www.w3.org/2000/svg">
<path d="M11.7676 3.71338H13.2324C13.3626 3.71338 13.4277 3.77848 13.4277 3.90869V21.0962C13.4277 21.2264 13.3626 21.2915 13.2324 21.2915H11.7676C11.6374 21.2915 11.5723 21.2264 11.5723 21.0962V3.90869C11.5723 3.77848 11.6374 3.71338 11.7676 3.71338Z" fill="white"/>
<path d="M4.29688 11.5747H20.7031C20.8333 11.5747 20.8984 11.6398 20.8984 11.77V13.2349C20.8984 13.3651 20.8333 13.4302 20.7031 13.4302H4.29688C4.16667 13.4302 4.10156 13.3651 4.10156 13.2349V11.77C4.10156 11.6398 4.16667 11.5747 4.29688 11.5747Z" fill="white"/>
</svg>
