<svg width="20" height="21" viewBox="0 0 20 21" fill="none" xmlns="http://www.w3.org/2000/svg">
<g clip-path="url(#clip0)">
<path d="M12.8382 0.113022C12.2063 0.0605218 11.6082 0.188022 11.0225 0.503647C10.2375 0.920522 9.68067 1.56427 9.42692 2.40115V2.45615L9.39754 2.65552L9.28754 2.45615L9.00754 1.95552C8.56067 1.25865 8.00442 0.838647 7.30504 0.643647C6.69254 0.506147 6.18817 0.561772 5.65754 0.845522C5.07192 1.20615 4.73692 1.76615 4.59692 2.54802C4.45692 3.35802 4.59692 4.1399 5.01692 4.92052L5.21192 5.20052L4.53755 4.9799C3.70067 4.78052 2.92004 4.89177 2.13504 5.31177C1.32817 5.72865 0.82317 6.31427 0.49192 7.12865C0.182545 7.90927 0.21192 8.66552 0.602545 9.36115C0.76817 9.67115 1.02254 9.91802 1.24317 10.088C1.57879 10.423 1.99817 10.618 2.50004 10.703L2.69504 10.7549L2.27817 11.123C1.88504 11.4549 1.66317 11.8749 1.52317 12.2911C1.45099 12.5379 1.43105 12.7971 1.46463 13.052C1.4982 13.3069 1.58455 13.5521 1.71817 13.7718C1.86129 13.9968 1.99817 14.1918 2.22004 14.3318C2.44504 14.5274 2.72504 14.6674 3.06004 14.6968C3.70642 14.8496 4.38252 14.8202 5.01317 14.6118L4.51129 15.4486L4.37129 15.8136C4.09129 16.7086 4.1763 17.4861 4.59629 18.2968C4.7913 18.6061 5.01317 18.8861 5.23692 19.1368C5.56942 19.4424 5.99192 19.6374 6.49692 19.7774C7.3338 20.0024 8.17004 19.9768 8.97692 19.5568C9.76192 19.1368 10.2625 18.4624 10.5169 17.6261L10.5425 17.4605C11.0732 18.0461 11.575 18.4374 12.1344 18.5774C12.6944 18.7468 13.2513 18.7205 13.7563 18.3824C14.2313 18.1055 14.5663 17.6268 14.7363 17.0405C14.8763 16.4255 14.8763 15.8136 14.7363 15.1136C15.0132 15.3086 15.2932 15.4486 15.6282 15.5336C16.5232 15.8136 17.305 15.7843 18.0857 15.368C18.8407 14.948 19.3425 14.2774 19.5963 13.4111C19.8169 12.5743 19.7619 11.7636 19.3457 10.9793L19.2025 10.7543C18.9807 10.4193 18.7569 10.0843 18.4207 9.8624C18.1413 9.6674 17.8057 9.5274 17.5 9.3874C18.3657 8.9674 18.9807 8.38177 19.2575 7.62552C19.4569 7.01052 19.4007 6.5099 19.1175 6.0049V5.9499C18.7825 5.39302 18.34 5.02802 17.64 4.83302C17.22 4.75115 16.7482 4.74802 16.3282 4.7774L15.4032 4.97302L15.7125 4.27615C15.9925 3.38115 15.9082 2.51552 15.4332 1.70427L15.3513 1.56115C14.9313 0.864272 14.3163 0.444272 13.4794 0.223647C13.2691 0.16794 13.0543 0.130921 12.8375 0.113022H12.8382ZM12.3632 1.29177C12.6332 1.26615 12.9032 1.30177 13.1707 1.39927C13.7563 1.53927 14.1763 1.8449 14.4263 2.3199V2.32302C14.5663 2.5999 14.6482 2.93552 14.6482 3.2999L14.5663 3.9149C14.4563 4.22052 14.3163 4.50052 14.1469 4.75177L11.6338 7.8249C11.3832 7.62927 11.1032 7.48927 10.8232 7.34927L10.5432 4.19177L10.5175 3.07615L10.5432 2.79615C10.6832 2.23927 11.0738 1.81927 11.5757 1.53927C11.8182 1.40318 12.0864 1.3189 12.3632 1.29177ZM6.62754 1.74052C6.73817 1.73365 6.85817 1.76302 6.96942 1.81865C7.47129 1.95865 7.89129 2.31927 8.22629 3.01927C8.36629 3.29927 8.50629 3.57615 8.56129 3.91115L9.12129 7.20865L8.70129 7.34865L6.21442 4.64052L6.07442 4.36052C5.85004 3.8599 5.71254 3.3849 5.76879 2.8799C5.79442 2.37927 5.99067 2.04302 6.32567 1.84802C6.41087 1.78014 6.51613 1.74235 6.62504 1.74052H6.62754ZM16.735 5.93302C16.8619 5.93302 16.9825 5.9399 17.1094 5.95302C17.585 6.01115 17.92 6.23302 18.0863 6.57115L18.2007 6.92865L18.145 7.20865C17.95 7.71365 17.53 8.10427 16.83 8.41052C16.5532 8.55052 16.2444 8.60552 15.9125 8.66115L12.475 9.08115L12.4194 8.88552L12.3644 8.80115L12.475 8.66115L15.2969 6.31365L15.6325 6.17677V6.17365C15.9808 6.01737 16.3577 5.93542 16.7394 5.93302H16.735ZM3.85067 6.08677C3.98379 6.09365 4.12067 6.1124 4.26067 6.14865V6.15177L5.01629 6.45427L7.47379 8.2449C7.24879 8.5249 7.11192 8.80427 7.02817 9.08177L3.0038 9.58615L2.72692 9.53115C2.22254 9.44615 1.88754 9.22115 1.66254 8.80427C1.43817 8.3849 1.44067 7.96865 1.60754 7.54865C1.80254 7.01802 2.16754 6.59802 2.69442 6.37365C3.07254 6.16552 3.45004 6.06365 3.85004 6.08677H3.85067ZM9.81754 8.32552C10.3225 8.32552 10.7975 8.5249 11.1032 8.83052C11.4975 9.22052 11.6632 9.64052 11.6632 10.1455C11.6632 10.6461 11.4975 11.1224 11.1032 11.4536C10.7425 11.8186 10.3225 12.0136 9.81754 12.0136C9.29004 12.0136 8.84442 11.8186 8.50942 11.4536C8.14442 11.1218 7.94942 10.6461 7.94942 10.1455C7.94942 9.64052 8.14442 9.22052 8.50942 8.83052C8.866 8.50056 9.3355 8.31982 9.82129 8.32552H9.81754ZM16.8294 10.4774L17.1094 10.5068C17.5294 10.6468 17.9238 10.8974 18.1444 11.3143C18.4244 11.6236 18.5644 12.0436 18.5644 12.5193L18.48 13.0761C18.34 13.6355 18.0044 14.0518 17.5294 14.2768C17.0288 14.5568 16.5238 14.6118 15.9669 14.4168C15.6319 14.3349 15.4069 14.1949 15.2119 13.9711L12.2788 11.5393L12.4744 11.1224L12.5588 10.7843L15.7163 10.5068L16.8332 10.4774H16.8294ZM11.3019 12.5193L12.4744 13.7168L13.2 14.6118L13.34 14.8918C13.5907 15.3674 13.7307 15.8136 13.6719 16.3436C13.62 16.8455 13.4513 17.2093 13.115 17.3493C12.92 17.4893 12.695 17.4893 12.4744 17.4599C11.9438 17.323 11.5238 16.903 11.2175 16.233L10.8825 15.3111L10.4625 12.8793L10.9344 12.7136L11.2994 12.5186L11.3019 12.5193ZM8.28442 12.5743C8.56129 12.7143 8.8413 12.8543 9.15004 12.8799C9.20685 13.8972 9.2992 14.9122 9.42692 15.923V17.043L9.40129 17.3199C9.20317 17.8249 8.86817 18.2449 8.36629 18.4655C7.86567 18.7455 7.33442 18.8011 6.82942 18.6611C6.26942 18.5243 5.85254 18.1855 5.62879 17.7393C5.48879 17.4593 5.37442 17.1243 5.37442 16.7893L5.51754 16.1474C5.57317 15.8674 5.71254 15.5905 5.93754 15.3668L8.28442 12.5743Z" fill="rgb(180, 180, 180)"/>
</g>
<defs>
<clipPath id="clip0">
<rect width="20" height="20" fill="rgb(180, 180, 180)" transform="translate(0 0.00244141)"/>
</clipPath>
</defs>
</svg>
