<svg width="22" height="23" viewBox="0 0 22 23" fill="none" xmlns="http://www.w3.org/2000/svg">
<path d="M16.2314 11.2709C16.1464 11.1857 16.0454 11.1181 15.9342 11.072C15.823 11.0259 15.7037 11.0021 15.5834 11.0021C15.463 11.0021 15.3438 11.0259 15.2326 11.072C15.1213 11.1181 15.0203 11.1857 14.9353 11.2709L13.4741 12.7321C12.7967 12.5304 11.5326 12.0721 10.7314 11.2709C9.93027 10.4697 9.47194 9.20563 9.27027 8.52822L10.7314 7.06705C10.8166 6.982 10.8842 6.88097 10.9303 6.76977C10.9765 6.65856 11.0002 6.53936 11.0002 6.41897C11.0002 6.29858 10.9765 6.17937 10.9303 6.06817C10.8842 5.95696 10.8166 5.85594 10.7314 5.77088L7.06477 2.10422C6.97972 2.01902 6.8787 1.95142 6.76749 1.90531C6.65628 1.85919 6.53708 1.83545 6.41669 1.83545C6.2963 1.83545 6.17709 1.85919 6.06589 1.90531C5.95468 1.95142 5.85366 2.01902 5.7686 2.10422L3.2826 4.59022C2.93427 4.93855 2.7381 5.41705 2.74544 5.90563C2.76652 7.21097 3.1121 11.7448 6.68527 15.318C10.2584 18.8911 14.7923 19.2358 16.0985 19.2578H16.1242C16.6082 19.2578 17.0656 19.0671 17.4121 18.7206L19.8981 16.2346C19.9833 16.1496 20.0509 16.0486 20.097 15.9374C20.1431 15.8261 20.1669 15.7069 20.1669 15.5866C20.1669 15.4662 20.1431 15.347 20.097 15.2357C20.0509 15.1245 19.9833 15.0235 19.8981 14.9385L16.2314 11.2709ZM16.115 17.4235C14.971 17.4043 11.0569 17.0972 7.98144 14.0209C4.89594 10.9354 4.5971 7.00747 4.57877 5.88638L6.41669 4.04847L8.78719 6.41897L7.60194 7.60422C7.49419 7.71188 7.41498 7.84469 7.37144 7.99065C7.32791 8.13662 7.32144 8.29113 7.3526 8.44022C7.3746 8.54563 7.91269 11.0454 9.43435 12.5671C10.956 14.0887 13.4558 14.6268 13.5612 14.6488C13.7102 14.6808 13.8649 14.6749 14.0109 14.6315C14.157 14.5881 14.2899 14.5086 14.3972 14.4004L15.5834 13.2151L17.9539 15.5856L16.115 17.4235Z" />
</svg>
